<?xml version="1.0" encoding="utf-8"?>
<!-- Generator: Adobe Illustrator 21.0.2, SVG Export Plug-In . SVG Version: 6.00 Build 0)  -->
<svg version="1.1" id="Group_313" xmlns="http://www.w3.org/2000/svg" xmlns:xlink="http://www.w3.org/1999/xlink" x="0px" y="0px"
	 viewBox="0 0 229.2 51.6" style="enable-background:new 0 0 229.2 51.6;" xml:space="preserve">
<style type="text/css">
	.st0{fill:#78A22F;}
	.st1{fill:#7EA831;}
	.st2{fill:#003E7E;}
</style>
<g id="Group_313-2" transform="translate(66.684 43.286)">
	<path id="Path_907" class="st0" d="M7.6,6.5C6.3,8.4,3.7,8.9,1.8,7.6C1.6,7.4,1.4,7.3,1.2,7.1C0.4,6.3,0,5.3,0,4.2
		C0,3,0.4,2,1.2,1.2C2,0.4,3.1,0,4.2,0c1.3,0,2.6,0.7,3.3,1.8L6.3,2.6C5.8,1.9,5,1.5,4.2,1.5c-0.7,0-1.4,0.3-1.9,0.8
		C1.8,2.8,1.5,3.4,1.5,4.1c0,1.4,1.1,2.6,2.6,2.6c0,0,0,0,0.1,0c0.9,0,1.7-0.4,2.2-1.1L7.6,6.5z"/>
	<path id="Path_908" class="st0" d="M21.5,8.1h-1.8l-1.8-3h-2.5v3H14v-8h4.9c1.4,0,2.5,1.1,2.6,2.5c0,0.5-0.2,1-0.5,1.5
		c-0.3,0.4-0.7,0.8-1.2,0.9L21.5,8.1z M19.8,2.6c0-0.3-0.1-0.5-0.3-0.7c-0.2-0.2-0.4-0.3-0.7-0.3h-3.4v2h3.4
		C19.4,3.6,19.8,3.2,19.8,2.6L19.8,2.6z"/>
	<path id="Path_909" class="st0" d="M34.6,8.1h-6.5v-8h6.4v1.5h-4.9v1.5h2.8v1.6h-2.8v1.9h5L34.6,8.1L34.6,8.1z"/>
	<path id="Path_910" class="st0" d="M49.7,8.1H48l-0.8-1.8H43l-0.8,1.8h-1.7l3.8-8h1.5L49.7,8.1z M46.4,4.9L45.2,2l-1.3,2.8H46.4z"
		/>
	<path id="Path_911" class="st0" d="M62.4,1.6h-2.7v6.5h-1.5V1.6h-2.7V0.1h6.9L62.4,1.6L62.4,1.6z"/>
	<path id="Path_912" class="st0" d="M75.3,8.1h-6.5v-8h6.4v1.5h-4.9v1.5h2.8v1.6h-2.8v1.9h5L75.3,8.1L75.3,8.1z"/>
	<path id="Path_913" class="st0" d="M96.5,1.6h-2.7v6.5h-1.5V1.6h-2.7V0.1h6.9V1.6z"/>
	<path id="Path_914" class="st0" d="M111.1,8.1h-1.8l-1.8-3h-2.5v3h-1.5v-8h4.9c1.4,0,2.5,1.1,2.6,2.5c0,0.5-0.2,1-0.5,1.5
		c-0.3,0.4-0.7,0.8-1.2,0.9L111.1,8.1z M109.5,2.6c0-0.3-0.1-0.5-0.3-0.7c-0.2-0.2-0.4-0.3-0.7-0.3h-3.4v2h3.4
		c0.3,0,0.5-0.1,0.7-0.3C109.4,3.2,109.5,2.9,109.5,2.6L109.5,2.6z"/>
	<path id="Path_915" class="st0" d="M126.1,4.3c0,0.7-0.1,1.5-0.5,2.1c-0.3,0.5-0.8,1-1.3,1.3c-1.1,0.7-2.6,0.7-3.7,0
		c-0.6-0.3-1-0.8-1.3-1.3c-0.4-0.6-0.5-1.4-0.5-2.1V0.1h1.5v4.2c0,0.4,0.1,0.9,0.3,1.3c0.2,0.3,0.5,0.6,0.8,0.8
		c0.7,0.4,1.5,0.4,2.2,0c0.4-0.2,0.6-0.5,0.8-0.8c0.2-0.4,0.3-0.8,0.3-1.3V0.1h1.5L126.1,4.3L126.1,4.3z"/>
	<path id="Path_916" class="st0" d="M141,5.7c0,0.7-0.3,1.4-0.9,1.9c-0.8,0.5-1.7,0.8-2.6,0.7c-1.4,0-2.8-0.4-4-1.2l0.9-1.2
		c0.9,0.6,2,0.9,3,0.9c0.5,0,1.1-0.1,1.6-0.3c0.3-0.1,0.5-0.4,0.5-0.7c0-0.3-0.2-0.6-0.5-0.7c-0.5-0.2-1.1-0.3-1.7-0.4
		c-1,0-1.9-0.3-2.7-0.8c-0.5-0.4-0.7-1-0.6-1.6c0-0.7,0.4-1.3,1-1.6c0.7-0.4,1.5-0.6,2.3-0.6c1.1,0,2.3,0.3,3.2,0.9l-0.8,1.2
		c-0.7-0.4-1.6-0.7-2.5-0.6c-0.4,0-0.8,0-1.2,0.1c-0.3,0-0.5,0.2-0.5,0.5c0,0.2,0.1,0.4,0.5,0.6c0.6,0.2,1.1,0.3,1.7,0.4
		c0.9,0,1.9,0.3,2.6,0.9C140.7,4.5,140.9,5.1,141,5.7z"/>
	<path id="Path_917" class="st0" d="M154.8,1.6h-2.7v6.5h-1.5V1.6h-2.7V0.1h6.9V1.6z"/>
</g>
<path id="Path_918" class="st1" d="M73.8,6.1c0,2-1.6,3.6-3.6,3.6c-2,0-3.6-1.6-3.6-3.6s1.6-3.6,3.6-3.6c0,0,0,0,0,0
	C72.1,2.4,73.8,4.1,73.8,6.1C73.8,6.1,73.8,6.1,73.8,6.1z"/>
<path id="Path_919" class="st2" d="M98.5,35h-3.1c-0.8,0-1.6-0.3-2.2-0.8c-0.6-0.6-0.9-1.4-0.8-2.2V20c0.1-1.2-0.4-2.3-1.3-3.1
	c-0.8-0.6-1.8-1-2.9-1c-1,0-2,0.3-2.8,1c-0.9,0.8-1.3,1.9-1.2,3.1v15H78V21.2c0-4,1.1-6.7,3.2-8.1c4.3-2.9,9.8-3,14.2-0.2
	c2.2,1.3,3.3,4.1,3.3,8.2V35H98.5z"/>
<path id="Path_920" class="st2" d="M123.6,35h-3.1c-0.8,0-1.6-0.3-2.2-0.8c-0.6-0.6-0.9-1.4-0.8-2.2V20c0.1-1.2-0.4-2.3-1.3-3.1
	c-0.8-0.6-1.8-1-2.9-1c-1,0-2,0.3-2.8,1c-0.9,0.8-1.3,1.9-1.2,3.1v15h-6.2V21.2c0-4,1.1-6.7,3.2-8.1c4.3-2.9,9.8-3,14.2-0.2
	c2.2,1.3,3.3,4.1,3.3,8.2V35H123.6z"/>
<path id="Path_921" class="st2" d="M131.1,32.9c-1.3-1.1-2.2-2.6-2.6-4.3c-0.5-1.8-0.8-3.7-0.8-5.6c0-1.6,0.2-3.2,0.6-4.8
	c0.4-1.5,1.1-2.8,2.1-4c1.5-1.7,3.6-2.9,5.9-3.2c2.2-0.4,4.4-0.2,6.6,0.6c2.2,0.8,4,2.5,5,4.6c1,2.1,1.6,4.4,1.5,6.8
	c0,1.6-0.2,3.3-0.6,4.9c-0.3,1.2-0.9,2.4-1.6,3.5c-1.3,1.8-3.2,3.1-5.4,3.6c-1.9,0.5-4,0.6-5.9,0.1
	C134.1,34.8,132.5,34.1,131.1,32.9z M135.4,17.4c-1.2,1.3-1.8,3.4-1.7,6.1s0.6,4.6,1.5,5.6c0.5,0.6,1.1,1,1.9,1.2
	c0.9,0.3,1.8,0.4,2.7,0.1c1-0.4,1.9-1.1,2.5-2c0.8-1.6,1.3-3.4,1.2-5.1c0.1-1.7-0.2-3.3-1-4.8c-0.5-0.9-1.4-1.6-2.3-2
	c-0.9-0.3-1.8-0.3-2.6-0.1C136.6,16.5,135.9,16.9,135.4,17.4L135.4,17.4z"/>
<path id="Path_922" class="st2" d="M165.6,35h-6.3l-8.2-23.5h6.6l4.7,16.6l4.2-14.4c0.3-1.3,1.5-2.2,2.8-2.1h4.6L165.6,35z"/>
<path id="Path_923" class="st2" d="M191.3,34.1c-1.2,0.6-2.5,1-3.9,1.2c-1.4,0.1-2.6,0.2-3.7,0.2c-2,0-3.9-0.6-5.6-1.7
	c-1.6-1.2-2.4-3-2.4-5.7c0-2.5,0.7-4.3,2.2-5.3c1.7-1.1,3.6-1.9,5.6-2.1c0.4,0,0.7-0.1,1.1-0.1c0.5-0.1,0.9-0.2,1.4-0.2
	c2.6-0.4,3.9-1.1,3.9-2.3c0-0.8-0.5-1.6-1.3-1.7c-0.8-0.3-1.7-0.4-2.5-0.4c-0.8,0-1.5,0.1-2.2,0.4c-0.6,0.2-1.1,0.7-1.4,1.3h-5.9
	c0.2-1.8,1.1-3.4,2.5-4.5c1.9-1.5,4.4-2.2,6.8-2c3.3,0,5.8,0.6,7.4,1.7c1.7,1.1,2.6,3,2.6,5v8.1c0.1,1.9-0.3,3.9-1.3,5.6
	C193.6,32.5,192.5,33.4,191.3,34.1z M189.8,23.2c-1.1,0.5-2.3,0.9-3.5,1.2l-2,0.5c-0.8,0.2-1.6,0.6-2.3,1.2
	c-0.4,0.6-0.6,1.2-0.6,1.9c0,0.8,0.3,1.5,0.8,2.1c0.6,0.5,1.5,0.8,2.3,0.7c1.4,0.1,2.8-0.4,3.9-1.4c1-1.1,1.5-2.5,1.4-3.9
	L189.8,23.2z"/>
<path id="Path_924" class="st2" d="M215.7,4.5h3c0.8,0,1.6,0.3,2.1,0.9c0.6,0.6,0.9,1.3,0.9,2.1v17.3c0,4.2-1.2,7-3.6,8.5
	c-2.4,1.5-5.1,2.2-7.9,2.2c-1.5,0-3.1-0.2-4.5-0.8c-1.4-0.5-2.6-1.3-3.6-2.5c-1.7-2.2-2.6-5.1-2.6-9c-0.1-3.2,0.8-6.3,2.6-9
	c1.6-2.2,4.1-3.5,6.8-3.5c1.4,0,2.7,0.3,3.9,0.9c1.1,0.7,2.1,1.6,2.8,2.7L215.7,4.5L215.7,4.5z M205.6,23.1
	c-0.1,1.9,0.4,3.8,1.3,5.4c1.6,2.1,4.6,2.5,6.6,0.9c0.3-0.3,0.6-0.6,0.9-0.9c0.9-1.6,1.3-3.5,1.2-5.4c0.1-1.8-0.4-3.5-1.3-5
	c-0.9-1.2-2.3-1.8-3.8-1.8c-1.4,0-2.8,0.7-3.6,1.9C206,19.6,205.5,21.4,205.6,23.1z"/>
<path id="Path_925" class="st2" d="M24.2,26"/>
<g id="Group_314" transform="translate(223.684 29.189)">
	<path id="Path_926" class="st2" d="M2.7,5.6c-1.6,0-2.8-1.2-2.9-2.7C-0.1,1.3,1.1,0,2.6,0s2.8,1.2,2.9,2.7c0,0,0,0,0,0.1
		C5.5,4.3,4.3,5.6,2.7,5.6C2.8,5.6,2.8,5.6,2.7,5.6z M2.7,0.5c-1.2,0-2.2,0.9-2.2,2.1c0,0,0,0.1,0,0.1C0.5,4,1.4,5,2.5,5.1
		c0.1,0,0.1,0,0.2,0C4,5,4.9,3.9,4.8,2.6C4.8,1.5,3.9,0.6,2.7,0.5L2.7,0.5z M2.2,4.4H1.6V1.3h1.2c0.8,0,1.1,0.2,1.1,0.9
		C4,2.6,3.7,2.9,3.3,3C3.2,3,3.2,3,3.1,3L4,4.3H3.4L2.6,3H2.1L2.2,4.4L2.2,4.4z M2.7,2.7c0.4,0,0.7-0.1,0.7-0.5
		c0-0.4-0.4-0.4-0.6-0.4H2.2v0.9H2.7z"/>
</g>
<path id="Path_927" class="st1" d="M32.3,18.1c0,3.7-3,6.7-6.7,6.7s-6.7-3-6.7-6.7c0-3.7,3-6.7,6.7-6.7
	C29.3,11.3,32.3,14.4,32.3,18.1z"/>
<path id="Path_928" class="st1" d="M43,28.1c2.7-1.3,5.2-3,7.3-5.1c0.2-0.3,0.5-0.5,0.8-0.8l0,0C49.1,8.1,36.2-1.7,22.2,0.2
	C10.8,1.8,1.8,10.8,0.2,22.2l0,0C0.5,22.5,0.7,22.7,1,23c2.1,2.2,4.6,3.9,7.3,5.1h0.1c-0.1-0.8-0.2-1.7-0.2-2.5
	C8.2,16,16,8.1,25.7,8.1c9.7,0,17.5,7.8,17.5,17.5C43.1,26.5,43.1,27.3,43,28.1z"/>
<path id="Path_929" class="st2" d="M18.1,41.4c-4.1-2-7.3-5.5-8.9-9.8H9.1c-0.4-0.1-0.7-0.2-1.1-0.4c-3-1.2-5.7-3-8.1-5.2l0,0
	c0.2,14.1,11.7,25.5,25.9,25.3C39.8,51.2,51.1,39.9,51.2,26l0,0c-2.4,2.2-5.1,4-8.1,5.2c-0.4,0.1-0.7,0.3-1.1,0.4l0,0
	c-1.6,4.4-4.8,8-9.1,9.9l-0.1-7.2c0-4.1-3.3-7.4-7.4-7.4c-4.1,0-7.4,3.3-7.4,7.4L18.1,41.4z"/>
<path id="Path_930" class="st2" d="M73.4,35.2h-6.4v-21c0-1.8,1.4-3.2,3.2-3.2c1.8,0,3.2,1.4,3.3,3.2L73.4,35.2z"/>
</svg>
