<?xml version="1.0"?>
<svg xmlns="http://www.w3.org/2000/svg" id="Layer_5" enable-background="new 0 0 64 64" height="512px" viewBox="0 0 64 64" width="512px"><g><path d="m57 51h-16.184c.112-.314.184-.648.184-1v-8c0-1.654-1.346-3-3-3h-8c-.352 0-.686.072-1 .184v-2.184h6v-8h-5c0-4.854-3.479-8.997-8.244-9.894l-.459-1.377c.541-.478.985-1.06 1.279-1.729h.424c1.654 0 3-1.346 3-3 0-.628-.195-1.21-.527-1.693.341-.874.527-1.809.527-2.747 0-4.168-3.392-7.56-7.56-7.56h-.88c-4.168 0-7.56 3.392-7.56 7.56 0 .939.186 1.874.527 2.748-.332.482-.527 1.064-.527 1.692 0 1.654 1.346 3 3 3h.424c.294.67.739 1.251 1.279 1.729l-.458 1.374c-4.739.869-8.245 5.026-8.245 9.897h-5v8h6v14c-3.309 0-6 2.691-6 6s2.691 6 6 6h50c3.309 0 6-2.691 6-6s-2.691-6-6-6zm-5 9c-1.654 0-3-1.346-3-3s1.346-3 3-3 3 1.346 3 3-1.346 3-3 3zm-5-3c0 1.641.806 3.088 2.031 4h-6.062c1.225-.912 2.031-2.359 2.031-4s-.806-3.088-2.031-4h6.062c-1.225.912-2.031 2.359-2.031 4zm-34-7v-8c0-.552.448-1 1-1h1v4h6v-4h1c.552 0 1 .448 1 1v8c0 .552-.448 1-1 1h-8c-.552 0-1-.448-1-1zm4-9h2v2h-2zm12 16c0 1.654-1.346 3-3 3s-3-1.346-3-3 1.346-3 3-3 3 1.346 3 3zm-17-3c1.654 0 3 1.346 3 3s-1.346 3-3 3-3-1.346-3-3 1.346-3 3-3zm5 3c0-1.641-.806-3.088-2.031-4h7.031 1.031c-1.225.912-2.031 2.359-2.031 4s.806 3.088 2.031 4h-8.062c1.225-.912 2.031-2.359 2.031-4zm14 0c0-1.641-.806-3.088-2.031-4h1.031 7.031c-1.225.912-2.031 2.359-2.031 4s.806 3.088 2.031 4h-8.062c1.225-.912 2.031-2.359 2.031-4zm12 0c0 1.654-1.346 3-3 3s-3-1.346-3-3 1.346-3 3-3 3 1.346 3 3zm-10-16h2v2h-2zm-3 0h1v4h6v-4h1c.552 0 1 .448 1 1v8c0 .552-.448 1-1 1h-8c-.552 0-1-.448-1-1v-5-3c0-.552.448-1 1-1zm-2-12h-2v-5.307c1.249 1.427 2 3.29 2 5.307zm-4-4h-2v-3.786c.712.189 1.382.47 2 .832zm-2 2h2v2h-2zm1-13v-2c.552 0 1 .448 1 1s-.448 1-1 1zm-11-1c0-.552.448-1 1-1v2c-.552 0-1-.448-1-1zm1.1-3h-.1c-.267 0-.522.046-.769.112-.147-.504-.231-1.027-.231-1.552 0-3.066 2.494-5.56 5.56-5.56h.881c3.065 0 5.559 2.494 5.559 5.56 0 .526-.085 1.049-.231 1.553-.247-.067-.502-.113-.769-.113h-1-1c-1.959 0-1.999-2.881-2-3.003l-1 .003h-1c0 1.729.836 5 4 5v2c0 1.654-1.346 3-3 3s-3-1.346-3-3v-3.146c0-.763.424-1.448 1.105-1.789l.342-.171-.895-1.789-.342.171c-1.101.551-1.856 1.555-2.11 2.724zm4.9 9c.535 0 1.041-.107 1.525-.263l.475 1.424v8.839h-4v-8.837l.475-1.426c.484.156.99.263 1.525.263zm-4 6h-2v-2.942c.617-.362 1.287-.644 2-.837zm-2 2h2v2h-2zm-2-3.298v5.298h-2c0-2.012.748-3.871 2-5.298zm-7 11.298v-4h30v4h-4v-2h-22v2zm6 0h18v7 3 5c0 .352.072.686.184 1h-2.369c.113-.314.185-.648.185-1v-8c0-1.654-1.346-3-3-3h-8c-1.654 0-3 1.346-3 3v8c0 .352.072.686.184 1h-2.184zm-6 22c0-2.206 1.794-4 4-4h2.031c-1.225.912-2.031 2.359-2.031 4s.806 3.088 2.031 4h-2.031c-2.206 0-4-1.794-4-4zm54 4h-2.031c1.225-.912 2.031-2.359 2.031-4s-.806-3.088-2.031-4h2.031c2.206 0 4 1.794 4 4s-1.794 4-4 4z" fill="#FFFFFF"/><circle cx="12" cy="57" r="1" fill="#FFFFFF"/><circle cx="26" cy="57" r="1" fill="#FFFFFF"/><circle cx="40" cy="57" r="1" fill="#FFFFFF"/><circle cx="52" cy="57" r="1" fill="#FFFFFF"/><path d="m48 35c-1.654 0-3 1.346-3 3v8c0 1.654 1.346 3 3 3h8c1.654 0 3-1.346 3-3v-8c0-1.654-1.346-3-3-3zm3 2h2v2h-2zm6 1v8c0 .552-.448 1-1 1h-8c-.552 0-1-.448-1-1v-8c0-.552.448-1 1-1h1v4h6v-4h1c.552 0 1 .448 1 1z" fill="#FFFFFF"/><path d="m51 19.142c-1.721.447-3 1.999-3 3.858 0 .168.029.327.049.49-1.292 1.132-2.049 2.773-2.049 4.51v3.414l2.293 2.293 1.414-1.414-1.707-1.707v-2.586c0-.925.326-1.806.894-2.51.734.913 1.846 1.51 3.106 1.51s2.372-.597 3.106-1.51c.568.704.894 1.586.894 2.51v2.586l-1.707 1.707 1.414 1.414 2.293-2.293v-3.414c0-1.736-.758-3.377-2.049-4.511.02-.162.049-.321.049-.489 0-1.859-1.279-3.411-3-3.858v-12.142h-25v2h23zm3 3.858c0 1.103-.897 2-2 2s-2-.897-2-2 .897-2 2-2 2 .897 2 2z" fill="#FFFFFF"/></g></svg>
